<svg xmlns="http://www.w3.org/2000/svg" version="1.1" xmlns:xlink="http://www.w3.org/1999/xlink" xmlns:svgjs="http://svgjs.com/svgjs" width="3840" height="2160" preserveAspectRatio="none" viewBox="0 0 3840 2160"><g mask="url(&quot;#SvgjsMask2812&quot;)" fill="none"><rect width="3840" height="2160" x="0" y="0" fill="url(#SvgjsLinearGradient2813)"></rect><path d="M3840 0L2788.31 0L3840 990.52z" fill="rgba(255, 255, 255, .1)"></path><path d="M2788.31 0L3840 990.52L3840 1442.33L2715.7999999999997 0z" fill="rgba(255, 255, 255, .075)"></path><path d="M2715.8 0L3840 1442.33L3840 1737.6399999999999L2442.04 0z" fill="rgba(255, 255, 255, .05)"></path><path d="M2442.04 0L3840 1737.6399999999999L3840 1977.7199999999998L2148.95 0z" fill="rgba(255, 255, 255, .025)"></path><path d="M0 2160L118.21 2160L0 1647.0900000000001z" fill="rgba(0, 0, 0, .1)"></path><path d="M0 1647.0900000000001L118.21 2160L2109.99 2160L0 953.9600000000002z" fill="rgba(0, 0, 0, .075)"></path><path d="M0 953.96L2109.99 2160L2485.1499999999996 2160L0 644.53z" fill="rgba(0, 0, 0, .05)"></path><path d="M0 644.53L2485.1499999999996 2160L2614.8599999999997 2160L0 354.19z" fill="rgba(0, 0, 0, .025)"></path></g><defs><mask id="SvgjsMask2812"><rect width="3840" height="2160" fill="#ffffff"></rect></mask><linearGradient x1="10.94%" y1="-19.44%" x2="89.06%" y2="119.44%" gradientUnits="userSpaceOnUse" id="SvgjsLinearGradient2813"><stop stop-color="rgba(0, 223, 194, 1)" offset="0"></stop><stop stop-color="rgba(0, 0, 0, 1)" offset="1"></stop></linearGradient></defs></svg>